<mxfile host="app.diagrams.net" modified="2021-12-20T14:09:01.406Z" agent="5.0 (Macintosh; Intel Mac OS X 10_15_7) AppleWebKit/537.36 (KHTML, like Gecko) Chrome/96.0.4664.110 Safari/537.36" etag="WqPa0CG44hIsppzfjJ-W" version="16.0.0" type="github">
  <diagram id="uhWuNRF3myjefSXcZx79" name="第 1 页">
    <mxGraphModel dx="806" dy="485" grid="1" gridSize="10" guides="1" tooltips="1" connect="1" arrows="1" fold="1" page="1" pageScale="1" pageWidth="827" pageHeight="1169" background="#ffffff" math="0" shadow="0">
      <root>
        <mxCell id="0" />
        <mxCell id="1" parent="0" />
        <mxCell id="6HBGmgXp6u7_ZYqmUKaH-6" style="rounded=0;orthogonalLoop=1;jettySize=auto;html=1;exitX=0;exitY=1;exitDx=0;exitDy=0;entryX=0.5;entryY=0;entryDx=0;entryDy=0;fontFamily=Comic Sans MS;fontSize=15;" edge="1" parent="1" source="6HBGmgXp6u7_ZYqmUKaH-1" target="6HBGmgXp6u7_ZYqmUKaH-2">
          <mxGeometry relative="1" as="geometry" />
        </mxCell>
        <mxCell id="6HBGmgXp6u7_ZYqmUKaH-7" style="edgeStyle=none;rounded=0;orthogonalLoop=1;jettySize=auto;html=1;exitX=1;exitY=1;exitDx=0;exitDy=0;entryX=0.5;entryY=0;entryDx=0;entryDy=0;fontFamily=Comic Sans MS;fontSize=15;" edge="1" parent="1" source="6HBGmgXp6u7_ZYqmUKaH-1" target="6HBGmgXp6u7_ZYqmUKaH-3">
          <mxGeometry relative="1" as="geometry" />
        </mxCell>
        <mxCell id="6HBGmgXp6u7_ZYqmUKaH-1" value="&lt;font face=&quot;Comic Sans MS&quot; style=&quot;font-size: 15px&quot;&gt;4&lt;/font&gt;" style="ellipse;whiteSpace=wrap;html=1;aspect=fixed;fillColor=#f8cecc;strokeColor=#b85450;" vertex="1" parent="1">
          <mxGeometry x="320" y="120" width="40" height="40" as="geometry" />
        </mxCell>
        <mxCell id="6HBGmgXp6u7_ZYqmUKaH-8" style="edgeStyle=none;rounded=0;orthogonalLoop=1;jettySize=auto;html=1;exitX=0;exitY=1;exitDx=0;exitDy=0;entryX=0.5;entryY=0;entryDx=0;entryDy=0;fontFamily=Comic Sans MS;fontSize=15;" edge="1" parent="1" source="6HBGmgXp6u7_ZYqmUKaH-2" target="6HBGmgXp6u7_ZYqmUKaH-4">
          <mxGeometry relative="1" as="geometry" />
        </mxCell>
        <mxCell id="6HBGmgXp6u7_ZYqmUKaH-9" style="edgeStyle=none;rounded=0;orthogonalLoop=1;jettySize=auto;html=1;exitX=1;exitY=1;exitDx=0;exitDy=0;entryX=0.5;entryY=0;entryDx=0;entryDy=0;fontFamily=Comic Sans MS;fontSize=15;" edge="1" parent="1" source="6HBGmgXp6u7_ZYqmUKaH-2" target="6HBGmgXp6u7_ZYqmUKaH-5">
          <mxGeometry relative="1" as="geometry" />
        </mxCell>
        <mxCell id="6HBGmgXp6u7_ZYqmUKaH-2" value="&lt;font face=&quot;Comic Sans MS&quot; style=&quot;font-size: 15px&quot;&gt;2&lt;/font&gt;" style="ellipse;whiteSpace=wrap;html=1;aspect=fixed;fillColor=#f8cecc;strokeColor=#b85450;" vertex="1" parent="1">
          <mxGeometry x="280" y="200" width="40" height="40" as="geometry" />
        </mxCell>
        <mxCell id="6HBGmgXp6u7_ZYqmUKaH-3" value="&lt;font face=&quot;Comic Sans MS&quot; style=&quot;font-size: 15px&quot;&gt;6&lt;/font&gt;" style="ellipse;whiteSpace=wrap;html=1;aspect=fixed;fillColor=#f8cecc;strokeColor=#b85450;" vertex="1" parent="1">
          <mxGeometry x="360" y="200" width="40" height="40" as="geometry" />
        </mxCell>
        <mxCell id="6HBGmgXp6u7_ZYqmUKaH-4" value="&lt;font style=&quot;font-size: 15px&quot; face=&quot;Comic Sans MS&quot;&gt;1&lt;/font&gt;" style="ellipse;whiteSpace=wrap;html=1;aspect=fixed;fillColor=#f8cecc;strokeColor=#b85450;" vertex="1" parent="1">
          <mxGeometry x="240" y="280" width="40" height="40" as="geometry" />
        </mxCell>
        <mxCell id="6HBGmgXp6u7_ZYqmUKaH-5" value="&lt;font face=&quot;Comic Sans MS&quot; style=&quot;font-size: 15px&quot;&gt;3&lt;/font&gt;" style="ellipse;whiteSpace=wrap;html=1;aspect=fixed;fillColor=#f8cecc;strokeColor=#b85450;" vertex="1" parent="1">
          <mxGeometry x="320" y="280" width="40" height="40" as="geometry" />
        </mxCell>
        <mxCell id="6HBGmgXp6u7_ZYqmUKaH-10" style="rounded=0;orthogonalLoop=1;jettySize=auto;html=1;exitX=0;exitY=1;exitDx=0;exitDy=0;entryX=0.5;entryY=0;entryDx=0;entryDy=0;fontFamily=Comic Sans MS;fontSize=15;" edge="1" parent="1" source="6HBGmgXp6u7_ZYqmUKaH-12" target="6HBGmgXp6u7_ZYqmUKaH-15">
          <mxGeometry relative="1" as="geometry" />
        </mxCell>
        <mxCell id="6HBGmgXp6u7_ZYqmUKaH-11" style="edgeStyle=none;rounded=0;orthogonalLoop=1;jettySize=auto;html=1;exitX=1;exitY=1;exitDx=0;exitDy=0;entryX=0.5;entryY=0;entryDx=0;entryDy=0;fontFamily=Comic Sans MS;fontSize=15;" edge="1" parent="1" source="6HBGmgXp6u7_ZYqmUKaH-12" target="6HBGmgXp6u7_ZYqmUKaH-16">
          <mxGeometry relative="1" as="geometry" />
        </mxCell>
        <mxCell id="6HBGmgXp6u7_ZYqmUKaH-12" value="&lt;font face=&quot;Comic Sans MS&quot; style=&quot;font-size: 15px&quot;&gt;1&lt;/font&gt;" style="ellipse;whiteSpace=wrap;html=1;aspect=fixed;fillColor=#f8cecc;strokeColor=#b85450;" vertex="1" parent="1">
          <mxGeometry x="560" y="120" width="40" height="40" as="geometry" />
        </mxCell>
        <mxCell id="6HBGmgXp6u7_ZYqmUKaH-13" style="edgeStyle=none;rounded=0;orthogonalLoop=1;jettySize=auto;html=1;exitX=0;exitY=1;exitDx=0;exitDy=0;entryX=0.5;entryY=0;entryDx=0;entryDy=0;fontFamily=Comic Sans MS;fontSize=15;" edge="1" parent="1" source="6HBGmgXp6u7_ZYqmUKaH-16" target="6HBGmgXp6u7_ZYqmUKaH-17">
          <mxGeometry relative="1" as="geometry" />
        </mxCell>
        <mxCell id="6HBGmgXp6u7_ZYqmUKaH-14" style="edgeStyle=none;rounded=0;orthogonalLoop=1;jettySize=auto;html=1;exitX=1;exitY=1;exitDx=0;exitDy=0;entryX=0.5;entryY=0;entryDx=0;entryDy=0;fontFamily=Comic Sans MS;fontSize=15;" edge="1" parent="1" source="6HBGmgXp6u7_ZYqmUKaH-16" target="6HBGmgXp6u7_ZYqmUKaH-18">
          <mxGeometry relative="1" as="geometry" />
        </mxCell>
        <mxCell id="6HBGmgXp6u7_ZYqmUKaH-15" value="&lt;font face=&quot;Comic Sans MS&quot; style=&quot;font-size: 15px&quot;&gt;0&lt;/font&gt;" style="ellipse;whiteSpace=wrap;html=1;aspect=fixed;fillColor=#f8cecc;strokeColor=#b85450;" vertex="1" parent="1">
          <mxGeometry x="520" y="200" width="40" height="40" as="geometry" />
        </mxCell>
        <mxCell id="6HBGmgXp6u7_ZYqmUKaH-16" value="&lt;font face=&quot;Comic Sans MS&quot; style=&quot;font-size: 15px&quot;&gt;48&lt;/font&gt;" style="ellipse;whiteSpace=wrap;html=1;aspect=fixed;fillColor=#f8cecc;strokeColor=#b85450;" vertex="1" parent="1">
          <mxGeometry x="600" y="200" width="40" height="40" as="geometry" />
        </mxCell>
        <mxCell id="6HBGmgXp6u7_ZYqmUKaH-17" value="&lt;font style=&quot;font-size: 15px&quot; face=&quot;Comic Sans MS&quot;&gt;12&lt;/font&gt;" style="ellipse;whiteSpace=wrap;html=1;aspect=fixed;fillColor=#f8cecc;strokeColor=#b85450;" vertex="1" parent="1">
          <mxGeometry x="560" y="280" width="40" height="40" as="geometry" />
        </mxCell>
        <mxCell id="6HBGmgXp6u7_ZYqmUKaH-18" value="&lt;font face=&quot;Comic Sans MS&quot; style=&quot;font-size: 15px&quot;&gt;49&lt;/font&gt;" style="ellipse;whiteSpace=wrap;html=1;aspect=fixed;fillColor=#f8cecc;strokeColor=#b85450;" vertex="1" parent="1">
          <mxGeometry x="640" y="280" width="40" height="40" as="geometry" />
        </mxCell>
        <mxCell id="6HBGmgXp6u7_ZYqmUKaH-19" style="rounded=0;orthogonalLoop=1;jettySize=auto;html=1;exitX=0;exitY=1;exitDx=0;exitDy=0;entryX=0.5;entryY=0;entryDx=0;entryDy=0;fontFamily=Comic Sans MS;fontSize=15;" edge="1" parent="1" source="6HBGmgXp6u7_ZYqmUKaH-21" target="6HBGmgXp6u7_ZYqmUKaH-24">
          <mxGeometry relative="1" as="geometry" />
        </mxCell>
        <mxCell id="6HBGmgXp6u7_ZYqmUKaH-20" style="edgeStyle=none;rounded=0;orthogonalLoop=1;jettySize=auto;html=1;exitX=1;exitY=1;exitDx=0;exitDy=0;entryX=0.5;entryY=0;entryDx=0;entryDy=0;fontFamily=Comic Sans MS;fontSize=15;" edge="1" parent="1" source="6HBGmgXp6u7_ZYqmUKaH-21" target="6HBGmgXp6u7_ZYqmUKaH-25">
          <mxGeometry relative="1" as="geometry" />
        </mxCell>
        <mxCell id="6HBGmgXp6u7_ZYqmUKaH-29" style="edgeStyle=none;rounded=0;orthogonalLoop=1;jettySize=auto;html=1;exitX=0.5;exitY=1;exitDx=0;exitDy=0;entryX=0.5;entryY=0;entryDx=0;entryDy=0;fontFamily=Comic Sans MS;fontSize=15;fillColor=#f8cecc;strokeColor=#b85450;" edge="1" parent="1" source="6HBGmgXp6u7_ZYqmUKaH-21" target="6HBGmgXp6u7_ZYqmUKaH-26">
          <mxGeometry relative="1" as="geometry" />
        </mxCell>
        <mxCell id="6HBGmgXp6u7_ZYqmUKaH-21" value="&lt;font face=&quot;Comic Sans MS&quot; style=&quot;font-size: 15px&quot;&gt;1&lt;/font&gt;" style="ellipse;whiteSpace=wrap;html=1;aspect=fixed;fillColor=#f8cecc;strokeColor=#b85450;" vertex="1" parent="1">
          <mxGeometry x="280" y="360" width="40" height="40" as="geometry" />
        </mxCell>
        <mxCell id="6HBGmgXp6u7_ZYqmUKaH-22" style="edgeStyle=none;rounded=0;orthogonalLoop=1;jettySize=auto;html=1;exitX=0;exitY=1;exitDx=0;exitDy=0;entryX=0.5;entryY=0;entryDx=0;entryDy=0;fontFamily=Comic Sans MS;fontSize=15;" edge="1" parent="1" source="6HBGmgXp6u7_ZYqmUKaH-25" target="6HBGmgXp6u7_ZYqmUKaH-26">
          <mxGeometry relative="1" as="geometry" />
        </mxCell>
        <mxCell id="6HBGmgXp6u7_ZYqmUKaH-23" style="edgeStyle=none;rounded=0;orthogonalLoop=1;jettySize=auto;html=1;exitX=1;exitY=1;exitDx=0;exitDy=0;entryX=0.5;entryY=0;entryDx=0;entryDy=0;fontFamily=Comic Sans MS;fontSize=15;" edge="1" parent="1" source="6HBGmgXp6u7_ZYqmUKaH-25" target="6HBGmgXp6u7_ZYqmUKaH-27">
          <mxGeometry relative="1" as="geometry" />
        </mxCell>
        <mxCell id="6HBGmgXp6u7_ZYqmUKaH-28" style="edgeStyle=none;rounded=0;orthogonalLoop=1;jettySize=auto;html=1;exitX=1;exitY=0;exitDx=0;exitDy=0;entryX=0.5;entryY=1;entryDx=0;entryDy=0;fontFamily=Comic Sans MS;fontSize=15;fillColor=#f8cecc;strokeColor=#b85450;" edge="1" parent="1" source="6HBGmgXp6u7_ZYqmUKaH-24" target="6HBGmgXp6u7_ZYqmUKaH-21">
          <mxGeometry relative="1" as="geometry" />
        </mxCell>
        <mxCell id="6HBGmgXp6u7_ZYqmUKaH-24" value="&lt;font face=&quot;Comic Sans MS&quot; style=&quot;font-size: 15px&quot;&gt;0&lt;/font&gt;" style="ellipse;whiteSpace=wrap;html=1;aspect=fixed;fillColor=#f8cecc;strokeColor=#b85450;" vertex="1" parent="1">
          <mxGeometry x="240" y="440" width="40" height="40" as="geometry" />
        </mxCell>
        <mxCell id="6HBGmgXp6u7_ZYqmUKaH-31" style="edgeStyle=none;rounded=0;orthogonalLoop=1;jettySize=auto;html=1;exitX=0.5;exitY=1;exitDx=0;exitDy=0;entryX=0;entryY=0;entryDx=0;entryDy=0;fontFamily=Comic Sans MS;fontSize=15;fillColor=#f8cecc;strokeColor=#b85450;" edge="1" parent="1" source="6HBGmgXp6u7_ZYqmUKaH-25" target="6HBGmgXp6u7_ZYqmUKaH-27">
          <mxGeometry relative="1" as="geometry" />
        </mxCell>
        <mxCell id="6HBGmgXp6u7_ZYqmUKaH-25" value="&lt;font face=&quot;Comic Sans MS&quot; style=&quot;font-size: 15px&quot;&gt;48&lt;/font&gt;" style="ellipse;whiteSpace=wrap;html=1;aspect=fixed;fillColor=#f8cecc;strokeColor=#b85450;" vertex="1" parent="1">
          <mxGeometry x="320" y="440" width="40" height="40" as="geometry" />
        </mxCell>
        <mxCell id="6HBGmgXp6u7_ZYqmUKaH-30" style="edgeStyle=none;rounded=0;orthogonalLoop=1;jettySize=auto;html=1;exitX=1;exitY=0;exitDx=0;exitDy=0;entryX=0.5;entryY=1;entryDx=0;entryDy=0;fontFamily=Comic Sans MS;fontSize=15;fillColor=#f8cecc;strokeColor=#b85450;" edge="1" parent="1" source="6HBGmgXp6u7_ZYqmUKaH-26" target="6HBGmgXp6u7_ZYqmUKaH-25">
          <mxGeometry relative="1" as="geometry" />
        </mxCell>
        <mxCell id="6HBGmgXp6u7_ZYqmUKaH-26" value="&lt;font style=&quot;font-size: 15px&quot; face=&quot;Comic Sans MS&quot;&gt;12&lt;/font&gt;" style="ellipse;whiteSpace=wrap;html=1;aspect=fixed;fillColor=#f8cecc;strokeColor=#b85450;" vertex="1" parent="1">
          <mxGeometry x="280" y="520" width="40" height="40" as="geometry" />
        </mxCell>
        <mxCell id="6HBGmgXp6u7_ZYqmUKaH-27" value="&lt;font face=&quot;Comic Sans MS&quot; style=&quot;font-size: 15px&quot;&gt;49&lt;/font&gt;" style="ellipse;whiteSpace=wrap;html=1;aspect=fixed;fillColor=#f8cecc;strokeColor=#b85450;" vertex="1" parent="1">
          <mxGeometry x="360" y="520" width="40" height="40" as="geometry" />
        </mxCell>
      </root>
    </mxGraphModel>
  </diagram>
</mxfile>
